<svg xmlns="http://www.w3.org/2000/svg" xmlns:xlink="http://www.w3.org/1999/xlink" width="40" zoomAndPan="magnify" viewBox="0 0 30 30.000001" height="40" preserveAspectRatio="xMidYMid meet" version="1.0"><defs><clipPath id="82bb4338ff"><path d="M 1.15625 0 L 28.734375 0 L 28.734375 24 L 1.15625 24 Z M 1.15625 0 " clip-rule="nonzero"/></clipPath><clipPath id="1b6c038646"><path d="M 10 25 L 15 25 L 15 29.03125 L 10 29.03125 Z M 10 25 " clip-rule="nonzero"/></clipPath><clipPath id="19bdf11ffa"><path d="M 20 25 L 25 25 L 25 29.03125 L 20 29.03125 Z M 20 25 " clip-rule="nonzero"/></clipPath><clipPath id="8b73710ac8"><path d="M 10.15625 6 L 21.769531 6 L 21.769531 14 L 10.15625 14 Z M 10.15625 6 " clip-rule="nonzero"/></clipPath><clipPath id="5fe1366a94"><path d="M 13 13 L 17 13 L 17 16.839844 L 13 16.839844 Z M 13 13 " clip-rule="nonzero"/></clipPath><clipPath id="39767b12b2"><path d="M 17 13 L 21 13 L 21 16.839844 L 17 16.839844 Z M 17 13 " clip-rule="nonzero"/></clipPath></defs><g clip-path="url(#82bb4338ff)"><path fill="#000000" d="M 24.777344 21.113281 L 11.167969 21.113281 C 11.011719 21.121094 10.859375 21.09375 10.710938 21.039062 C 10.566406 20.980469 10.433594 20.898438 10.320312 20.789062 C 10.210938 20.675781 10.121094 20.550781 10.058594 20.40625 C 10 20.257812 9.96875 20.109375 9.96875 19.949219 C 9.96875 19.792969 10 19.640625 10.058594 19.496094 C 10.121094 19.347656 10.210938 19.222656 10.320312 19.113281 C 10.433594 19.003906 10.566406 18.917969 10.710938 18.863281 C 10.859375 18.804688 11.011719 18.78125 11.167969 18.785156 L 24.777344 18.785156 C 25.085938 18.785156 25.363281 18.6875 25.601562 18.496094 C 25.84375 18.300781 25.996094 18.054688 26.0625 17.75 L 28.539062 6.574219 C 28.582031 6.378906 28.582031 6.183594 28.535156 5.988281 C 28.492188 5.792969 28.40625 5.617188 28.28125 5.460938 C 28.15625 5.304688 28.003906 5.183594 27.824219 5.097656 C 27.644531 5.011719 27.453125 4.96875 27.253906 4.96875 L 8.691406 4.96875 C 8.597656 4.96875 8.503906 4.976562 8.414062 4.996094 L 7.5 1.023438 C 7.429688 0.722656 7.277344 0.476562 7.035156 0.285156 C 6.796875 0.09375 6.523438 0 6.21875 0 L 2.503906 0 C 2.332031 0 2.164062 0.0351562 2 0.101562 C 1.839844 0.167969 1.699219 0.261719 1.574219 0.386719 C 1.453125 0.511719 1.355469 0.652344 1.289062 0.816406 C 1.222656 0.976562 1.191406 1.144531 1.191406 1.320312 C 1.191406 1.496094 1.222656 1.664062 1.289062 1.824219 C 1.355469 1.988281 1.453125 2.128906 1.574219 2.253906 C 1.699219 2.375 1.839844 2.472656 2 2.539062 C 2.164062 2.605469 2.332031 2.640625 2.503906 2.640625 L 5.171875 2.640625 L 8.527344 17.230469 C 8.257812 17.492188 8.03125 17.792969 7.847656 18.121094 C 7.667969 18.453125 7.535156 18.804688 7.460938 19.175781 C 7.382812 19.546875 7.359375 19.917969 7.394531 20.296875 C 7.425781 20.671875 7.515625 21.035156 7.65625 21.386719 C 7.800781 21.734375 7.988281 22.058594 8.226562 22.351562 C 8.464844 22.644531 8.738281 22.898438 9.050781 23.109375 C 9.363281 23.320312 9.703125 23.480469 10.0625 23.589844 C 10.421875 23.699219 10.792969 23.753906 11.167969 23.753906 L 24.777344 23.753906 C 24.953125 23.753906 25.121094 23.71875 25.28125 23.652344 C 25.441406 23.585938 25.585938 23.492188 25.707031 23.367188 C 25.832031 23.242188 25.925781 23.101562 25.992188 22.9375 C 26.058594 22.777344 26.09375 22.609375 26.09375 22.433594 C 26.09375 22.257812 26.058594 22.089844 25.992188 21.929688 C 25.925781 21.765625 25.832031 21.625 25.707031 21.5 C 25.585938 21.378906 25.441406 21.28125 25.28125 21.214844 C 25.121094 21.148438 24.953125 21.113281 24.777344 21.113281 Z M 24.777344 21.113281 " fill-opacity="1" fill-rule="nonzero"/></g><g clip-path="url(#1b6c038646)"><path fill="#000000" d="M 14.878906 27.054688 C 14.878906 27.316406 14.828125 27.566406 14.730469 27.808594 C 14.628906 28.054688 14.488281 28.265625 14.300781 28.453125 C 14.117188 28.636719 13.902344 28.78125 13.664062 28.882812 C 13.421875 28.980469 13.167969 29.03125 12.90625 29.03125 C 12.644531 29.03125 12.394531 28.980469 12.152344 28.882812 C 11.910156 28.78125 11.699219 28.636719 11.511719 28.453125 C 11.328125 28.265625 11.1875 28.054688 11.085938 27.808594 C 10.984375 27.566406 10.933594 27.316406 10.933594 27.054688 C 10.933594 26.789062 10.984375 26.539062 11.085938 26.296875 C 11.1875 26.054688 11.328125 25.839844 11.511719 25.652344 C 11.699219 25.46875 11.910156 25.324219 12.152344 25.222656 C 12.394531 25.125 12.644531 25.074219 12.90625 25.074219 C 13.167969 25.074219 13.421875 25.125 13.664062 25.222656 C 13.902344 25.324219 14.117188 25.46875 14.300781 25.652344 C 14.488281 25.839844 14.628906 26.054688 14.730469 26.296875 C 14.828125 26.539062 14.878906 26.789062 14.878906 27.054688 Z M 14.878906 27.054688 " fill-opacity="1" fill-rule="nonzero"/></g><g clip-path="url(#19bdf11ffa)"><path fill="#000000" d="M 24.082031 27.054688 C 24.082031 27.316406 24.035156 27.566406 23.933594 27.808594 C 23.832031 28.054688 23.691406 28.265625 23.503906 28.453125 C 23.320312 28.636719 23.109375 28.78125 22.867188 28.882812 C 22.625 28.980469 22.371094 29.03125 22.109375 29.03125 C 21.847656 29.03125 21.597656 28.980469 21.355469 28.882812 C 21.113281 28.78125 20.902344 28.636719 20.714844 28.453125 C 20.53125 28.265625 20.390625 28.054688 20.289062 27.808594 C 20.1875 27.566406 20.140625 27.316406 20.140625 27.054688 C 20.140625 26.789062 20.1875 26.539062 20.289062 26.296875 C 20.390625 26.054688 20.53125 25.839844 20.714844 25.652344 C 20.902344 25.46875 21.113281 25.324219 21.355469 25.222656 C 21.597656 25.125 21.847656 25.074219 22.109375 25.074219 C 22.371094 25.074219 22.625 25.125 22.867188 25.222656 C 23.109375 25.324219 23.320312 25.46875 23.503906 25.652344 C 23.691406 25.839844 23.832031 26.054688 23.933594 26.296875 C 24.035156 26.539062 24.082031 26.789062 24.082031 27.054688 Z M 24.082031 27.054688 " fill-opacity="1" fill-rule="nonzero"/></g><g clip-path="url(#8b73710ac8)"><path fill="#000000" d="M 20.609375 8.011719 L 13.785156 8.011719 C 13.6875 8.011719 13.601562 8.046875 13.53125 8.113281 C 13.460938 8.183594 13.421875 8.265625 13.421875 8.363281 C 13.421875 8.460938 13.460938 8.542969 13.53125 8.613281 C 13.601562 8.679688 13.6875 8.714844 13.785156 8.714844 L 20.609375 8.714844 C 20.679688 8.714844 20.742188 8.730469 20.800781 8.765625 C 20.863281 8.796875 20.910156 8.839844 20.945312 8.898438 C 20.980469 8.953125 21 9.015625 21.003906 9.082031 C 21.007812 9.148438 20.992188 9.210938 20.960938 9.269531 C 20.550781 10.078125 19.957031 11.878906 19.664062 12.453125 C 19.59375 12.59375 19.476562 12.664062 19.3125 12.664062 L 14.289062 12.664062 C 14.109375 12.664062 13.988281 12.582031 13.921875 12.421875 C 13.921875 12.417969 12.792969 7.480469 12.792969 7.480469 C 12.695312 7.0625 12.480469 6.722656 12.136719 6.453125 C 11.796875 6.1875 11.40625 6.054688 10.964844 6.054688 L 10.515625 6.054688 C 10.414062 6.046875 10.328125 6.082031 10.257812 6.152344 C 10.183594 6.222656 10.148438 6.304688 10.15625 6.40625 C 10.15625 6.503906 10.191406 6.585938 10.261719 6.65625 C 10.332031 6.722656 10.417969 6.757812 10.515625 6.757812 L 10.964844 6.757812 C 11.234375 6.757812 11.472656 6.839844 11.683594 7.003906 C 11.894531 7.167969 12.027344 7.375 12.085938 7.632812 L 13.21875 12.589844 C 13.222656 12.601562 13.226562 12.613281 13.230469 12.625 C 13.304688 12.847656 13.441406 13.023438 13.636719 13.160156 C 13.832031 13.296875 14.046875 13.367188 14.289062 13.367188 L 19.3125 13.367188 C 19.773438 13.367188 20.105469 13.167969 20.3125 12.765625 C 20.605469 12.191406 21.195312 10.390625 21.609375 9.582031 C 21.652344 9.5 21.683594 9.414062 21.703125 9.324219 C 21.722656 9.234375 21.730469 9.140625 21.726562 9.050781 C 21.722656 8.957031 21.707031 8.867188 21.675781 8.777344 C 21.648438 8.6875 21.609375 8.605469 21.558594 8.527344 C 21.511719 8.449219 21.449219 8.375 21.382812 8.3125 C 21.3125 8.25 21.238281 8.195312 21.15625 8.148438 C 21.070312 8.105469 20.984375 8.070312 20.890625 8.046875 C 20.800781 8.023438 20.707031 8.011719 20.609375 8.011719 Z M 20.609375 8.011719 " fill-opacity="1" fill-rule="evenodd"/></g><g clip-path="url(#5fe1366a94)"><path fill="#000000" d="M 14.679688 13.78125 C 14.484375 13.78125 14.296875 13.816406 14.117188 13.890625 C 13.933594 13.960938 13.773438 14.066406 13.636719 14.199219 C 13.496094 14.335938 13.390625 14.492188 13.316406 14.667969 C 13.242188 14.84375 13.203125 15.027344 13.203125 15.21875 C 13.203125 15.410156 13.242188 15.59375 13.316406 15.769531 C 13.390625 15.945312 13.496094 16.101562 13.636719 16.234375 C 13.773438 16.371094 13.933594 16.472656 14.117188 16.546875 C 14.296875 16.621094 14.484375 16.65625 14.679688 16.65625 C 14.878906 16.65625 15.066406 16.621094 15.246094 16.546875 C 15.425781 16.472656 15.585938 16.371094 15.726562 16.234375 C 15.863281 16.101562 15.972656 15.945312 16.046875 15.769531 C 16.121094 15.59375 16.160156 15.410156 16.160156 15.21875 C 16.160156 15.027344 16.121094 14.84375 16.046875 14.667969 C 15.96875 14.492188 15.863281 14.335938 15.726562 14.199219 C 15.585938 14.066406 15.425781 13.960938 15.246094 13.890625 C 15.066406 13.816406 14.875 13.78125 14.679688 13.78125 Z M 14.679688 15.953125 C 14.472656 15.953125 14.296875 15.878906 14.148438 15.738281 C 14 15.59375 13.925781 15.421875 13.925781 15.21875 C 13.925781 15.015625 14 14.84375 14.148438 14.699219 C 14.292969 14.554688 14.472656 14.484375 14.679688 14.484375 C 14.890625 14.484375 15.066406 14.554688 15.214844 14.699219 C 15.363281 14.84375 15.433594 15.015625 15.433594 15.21875 C 15.433594 15.421875 15.363281 15.59375 15.214844 15.738281 C 15.066406 15.878906 14.890625 15.953125 14.679688 15.953125 Z M 14.679688 15.953125 " fill-opacity="1" fill-rule="evenodd"/></g><g clip-path="url(#39767b12b2)"><path fill="#000000" d="M 18.796875 13.78125 C 18.601562 13.78125 18.414062 13.816406 18.234375 13.890625 C 18.050781 13.960938 17.890625 14.066406 17.753906 14.199219 C 17.617188 14.335938 17.507812 14.492188 17.433594 14.667969 C 17.359375 14.84375 17.320312 15.027344 17.320312 15.21875 C 17.320312 15.410156 17.359375 15.59375 17.433594 15.769531 C 17.507812 15.945312 17.617188 16.101562 17.753906 16.234375 C 17.894531 16.371094 18.050781 16.472656 18.234375 16.546875 C 18.414062 16.621094 18.601562 16.65625 18.800781 16.65625 C 18.996094 16.65625 19.183594 16.621094 19.363281 16.546875 C 19.546875 16.472656 19.707031 16.371094 19.84375 16.234375 C 19.980469 16.101562 20.089844 15.945312 20.164062 15.769531 C 20.238281 15.59375 20.277344 15.410156 20.277344 15.21875 C 20.277344 15.027344 20.238281 14.84375 20.164062 14.667969 C 20.089844 14.492188 19.980469 14.335938 19.84375 14.199219 C 19.703125 14.066406 19.546875 13.960938 19.363281 13.890625 C 19.183594 13.816406 18.996094 13.78125 18.796875 13.78125 Z M 18.796875 15.953125 C 18.589844 15.953125 18.414062 15.878906 18.265625 15.738281 C 18.117188 15.59375 18.042969 15.421875 18.042969 15.21875 C 18.042969 15.015625 18.117188 14.84375 18.265625 14.699219 C 18.414062 14.554688 18.589844 14.484375 18.796875 14.484375 C 19.007812 14.484375 19.183594 14.554688 19.332031 14.699219 C 19.480469 14.84375 19.554688 15.015625 19.554688 15.21875 C 19.554688 15.421875 19.480469 15.59375 19.332031 15.738281 C 19.183594 15.878906 19.007812 15.953125 18.796875 15.953125 Z M 18.796875 15.953125 " fill-opacity="1" fill-rule="evenodd"/></g></svg>